<svg xmlns="http://www.w3.org/2000/svg" xmlns:xlink="http://www.w3.org/1999/xlink" aria-hidden="true" role="img" class="iconify iconify--logos" width="31.88" height="32" preserveAspectRatio="xMidYMid meet" viewBox="0 0 256 257"><defs><linearGradient id="IconifyId1813088fe1fbc01fb466" x1="-.828%" x2="57.636%" y1="7.652%" y2="78.411%"><stop offset="0%" stop-color="#41D1FF"></stop><stop offset="100%" stop-color="#BD34FE"></stop><svg fill="#000000" version="1.1" id="Capa_1" xmlns="http://www.w3.org/2000/svg" xmlns:xlink="http://www.w3.org/1999/xlink" viewBox="0 0 297 297" xml:space="preserve"><g id="SVGRepo_bgCarrier" stroke-width="0"></g><g id="SVGRepo_tracerCarrier" stroke-linecap="round" stroke-linejoin="round"></g><g id="SVGRepo_iconCarrier"> <g> <path d="M237.333,33h-50.14c-2.558-18.613-18.556-33-37.86-33s-35.303,14.387-37.86,33h-51.14C50.408,33,42,41.075,42,51v228 c0,9.925,8.408,18,18.333,18h177c9.925,0,17.667-8.075,17.667-18V51C255,41.075,247.258,33,237.333,33z M93.052,48 c3.432,18.033,19.084,31,38.092,31h36.379c19.008,0,34.66-12.967,38.092-31H223v216H75V48H93.052z M149.333,16 c10.456,0,19.242,7.259,21.601,17h-43.201C130.091,23.259,138.877,16,149.333,16z"></path> <rect x="99" y="109" width="50" height="15"></rect> <polygon points="200.689,105.076 189.645,94.924 175.427,110.39 169.237,105.347 159.763,116.976 176.907,130.944 "></polygon> <rect x="99" y="157" width="50" height="15"></rect> <polygon points="200.689,153.076 189.645,142.924 175.427,158.39 169.237,153.347 159.763,164.976 176.907,178.944 "></polygon> <rect x="99" y="205" width="50" height="15"></rect> <polygon points="200.689,201.076 189.645,190.924 175.427,206.39 169.237,201.347 159.763,212.976 176.907,226.944 "></polygon> </g> </g></svg></linearGradient><linearGradient id="IconifyId1813088fe1fbc01fb467" x1="43.376%" x2="50.316%" y1="2.242%" y2="89.03%"><stop offset="0%" stop-color="#FFEA83"></stop><stop offset="8.333%" stop-color="#FFDD35"></stop><stop offset="100%" stop-color="#FFA800"></stop></linearGradient></defs><path fill="url(#IconifyId1813088fe1fbc01fb466)" d="M255.153 37.938L134.897 252.976c-2.483 4.44-8.862 4.466-11.382.048L.875 37.958c-2.746-4.814 1.371-10.646 6.827-9.67l120.385 21.517a6.537 6.537 0 0 0 2.322-.004l117.867-21.483c5.438-.991 9.574 4.796 6.877 9.62Z"></path><path fill="url(#IconifyId1813088fe1fbc01fb467)" d="M185.432.063L96.44 17.501a3.268 3.268 0 0 0-2.634 3.014l-5.474 92.456a3.268 3.268 0 0 0 3.997 3.378l24.777-5.718c2.318-.535 4.413 1.507 3.936 3.838l-7.361 36.047c-.495 2.426 1.782 4.5 4.151 3.78l15.304-4.649c2.372-.72 4.652 1.36 4.15 3.788l-11.698 56.621c-.732 3.542 3.979 5.473 5.943 2.437l1.313-2.028l72.516-144.72c1.215-2.423-.88-5.186-3.54-4.672l-25.505 4.922c-2.396.462-4.435-1.77-3.759-4.114l16.646-57.705c.677-2.35-1.37-4.583-3.769-4.113Z"></path></svg>